<?xml version="1.0" encoding="utf-8"?>
<!-- Generator: Adobe Illustrator 27.6.1, SVG Export Plug-In . SVG Version: 6.00 Build 0)  -->
<svg version="1.1" id="Layer_1" xmlns="http://www.w3.org/2000/svg" xmlns:xlink="http://www.w3.org/1999/xlink" x="0px" y="0px"
	 viewBox="0 0 41 41" style="enable-background:new 0 0 41 41;" xml:space="preserve">
<style type="text/css">
	.st0{fill:#E43534;}
	.st1{fill:#FFFFFF;}
	.st2{fill:#414245;}
</style>
<g>
	<circle class="st0" cx="20.5" cy="20.5" r="20"/>
	<g>
		<path class="st1" d="M34.6,16.2h-9.8V6.3h-8.5v9.9H6.5v8.6h9.8v9.9h8.5v-9.9h9.8V16.2z"/>
		<path class="st2" d="M14.6,24c-0.4,0-0.8-0.1-1.2-0.3c-0.4-0.2-0.7-0.4-1-0.6c-0.3-0.3-0.5-0.6-0.7-1s-0.3-0.8-0.3-1.3
			c0-0.4,0.1-0.9,0.3-1.2s0.4-0.7,0.7-1s0.6-0.5,1-0.7c0.4-0.2,0.8-0.3,1.3-0.3c0.3,0,0.6,0,0.8,0.1c0.3,0.1,0.5,0.2,0.7,0.3
			c0.2,0.1,0.4,0.3,0.6,0.4c0.2,0.2,0.3,0.3,0.5,0.5l-1.3,1c-0.2-0.2-0.4-0.4-0.6-0.5c-0.2-0.1-0.5-0.2-0.8-0.2
			c-0.2,0-0.4,0-0.6,0.1c-0.2,0.1-0.3,0.2-0.5,0.3c-0.1,0.1-0.2,0.3-0.3,0.5c-0.1,0.2-0.1,0.4-0.1,0.6c0,0.2,0,0.4,0.1,0.6
			c0.1,0.2,0.2,0.4,0.3,0.5c0.1,0.1,0.3,0.3,0.5,0.3c0.2,0.1,0.4,0.1,0.6,0.1c0.2,0,0.3,0,0.4,0c0.1,0,0.3-0.1,0.3-0.2
			c0.1-0.1,0.2-0.1,0.3-0.3c0.1-0.1,0.2-0.2,0.3-0.3l1.3,0.9c-0.1,0.2-0.3,0.4-0.5,0.6c-0.2,0.2-0.4,0.3-0.6,0.4
			c-0.2,0.1-0.5,0.2-0.7,0.3C15.3,23.9,15,24,14.6,24z"/>
		<path class="st2" d="M20.5,20.7c0.3,0,0.5-0.1,0.7-0.2c0.2-0.1,0.3-0.3,0.3-0.6c0-0.3-0.1-0.5-0.3-0.6c-0.2-0.1-0.4-0.2-0.7-0.2
			h-0.8v1.6H20.5z M18.1,17.7h2.6c0.4,0,0.7,0,1.1,0.1c0.3,0.1,0.6,0.2,0.8,0.4c0.2,0.2,0.4,0.4,0.5,0.7c0.1,0.3,0.2,0.6,0.2,0.9
			c0,0.4-0.1,0.7-0.2,0.9c-0.1,0.3-0.3,0.5-0.5,0.7c-0.3,0.2-0.5,0.3-0.8,0.4S20.9,22,20.5,22h-0.8v1.7H18L18.1,17.7L18.1,17.7z"/>
		<path class="st2" d="M26.7,20.6c0.3,0,0.5-0.1,0.7-0.2s0.3-0.3,0.3-0.5c0-0.3-0.1-0.4-0.3-0.6s-0.4-0.2-0.7-0.2h-1.1v1.5
			L26.7,20.6L26.7,20.6z M23.9,17.7h2.9c0.5,0,0.9,0,1.2,0.2c0.3,0.1,0.6,0.3,0.8,0.5c0.4,0.3,0.5,0.8,0.5,1.5
			c0,0.5-0.1,0.9-0.3,1.2c-0.2,0.3-0.5,0.6-0.9,0.7l1.4,2.1h-1.9L26.3,22h-0.7v1.9h-1.7V17.7z"/>
		<path class="st2" d="M31,18.4v0.5c0,0,0.1,0,0.1,0c0.1,0,0.3,0,0.3,0c0,0,0.1-0.1,0.1-0.2c0-0.2-0.1-0.3-0.3-0.3H31L31,18.4z
			 M31.5,19.7L31.2,19H31v0.7h-0.3v-1.6h0.4c0.4,0,0.5,0.1,0.5,0.4c0,0.2-0.1,0.3-0.3,0.4l0.4,0.7H31.5z M32.2,19
			c0-0.3-0.1-0.6-0.3-0.8c-0.2-0.2-0.5-0.3-0.8-0.3c-0.3,0-0.5,0.1-0.8,0.3c-0.2,0.2-0.3,0.5-0.3,0.8s0.1,0.6,0.3,0.8
			c0.2,0.2,0.5,0.3,0.8,0.3c0.3,0,0.5-0.1,0.8-0.3C32.1,19.5,32.2,19.3,32.2,19z M29.9,19c0-0.3,0.1-0.6,0.4-0.9
			c0.3-0.3,0.5-0.4,0.9-0.4s0.6,0.1,0.9,0.4c0.3,0.3,0.4,0.6,0.4,0.9c0,0.3-0.1,0.6-0.4,0.9c-0.3,0.3-0.5,0.4-0.9,0.4
			s-0.6-0.1-0.9-0.4C30,19.6,29.9,19.3,29.9,19z"/>
	</g>
</g>
</svg>
