<?xml version="1.0" encoding="utf-8"?>
<!-- Generator: Adobe Illustrator 27.6.1, SVG Export Plug-In . SVG Version: 6.00 Build 0)  -->
<svg version="1.1" id="Layer_1" xmlns="http://www.w3.org/2000/svg" xmlns:xlink="http://www.w3.org/1999/xlink" x="0px" y="0px"
	 viewBox="0 0 473 113" style="enable-background:new 0 0 473 113;" xml:space="preserve">
<style type="text/css">
	.st0{fill:#414245;}
	.st1{fill:#E43534;}
	.st2{fill:#FFFFFF;}
</style>
<path class="st0" d="M116.9,39.7L116.9,39.7c0-7.4,5.5-13.4,13-13.4c4.2,0,6.8,1.4,9.2,3.3c0.3,0.3,0.6,0.7,0.6,1.2
	c0,0.8-0.7,1.4-1.5,1.4c-0.4,0-0.7-0.2-1-0.3c-2-1.8-4.2-3-7.4-3c-5.7,0-10,4.6-10,10.6v0.1c0,6,4.3,10.6,10,10.6
	c3.2,0,5.5-1.1,7.7-3.1c0.2-0.2,0.6-0.4,0.9-0.4c0.7,0,1.4,0.7,1.4,1.4c0,0.4-0.2,0.8-0.5,1c-2.5,2.3-5.3,3.8-9.6,3.8
	C122.4,52.9,116.9,47.1,116.9,39.7"/>
<path class="st0" d="M142.8,51V28.2c0-0.8,0.7-1.5,1.4-1.5h16c0.7,0,1.3,0.6,1.3,1.3s-0.6,1.3-1.3,1.3h-14.5v8.8h12.9
	c0.7,0,1.3,0.6,1.3,1.3s-0.6,1.3-1.3,1.3h-12.9v9h14.7c0.7,0,1.3,0.6,1.3,1.3s-0.6,1.3-1.3,1.3h-16.2
	C143.5,52.5,142.8,51.8,142.8,51"/>
<path class="st0" d="M165.1,28c0-0.8,0.7-1.5,1.4-1.5c0.8,0,1.5,0.7,1.5,1.5v21.8h13.4c0.7,0,1.3,0.6,1.3,1.4c0,0.7-0.6,1.3-1.3,1.3
	h-14.8c-0.8,0-1.4-0.7-1.4-1.5L165.1,28L165.1,28z"/>
<path class="st0" d="M185.5,28c0-0.8,0.7-1.5,1.4-1.5c0.8,0,1.5,0.7,1.5,1.5v21.8h13.4c0.7,0,1.3,0.6,1.3,1.4c0,0.7-0.6,1.3-1.3,1.3
	H187c-0.8,0-1.4-0.7-1.4-1.5L185.5,28L185.5,28z"/>
<path class="st0" d="M223.8,40.8c4.3,0,7.1-2.3,7.1-5.7V35c0-3.7-2.8-5.6-6.9-5.6h-6.5v11.3L223.8,40.8L223.8,40.8z M214.5,28.2
	c0-0.8,0.7-1.5,1.4-1.5h8.2c5.8,0,9.6,3.1,9.6,8.2V35c0,5.6-4.6,8.4-10.1,8.4h-6.3v7.8c0,0.8-0.7,1.5-1.5,1.5s-1.4-0.7-1.4-1.5v-23
	H214.5z"/>
<path class="st0" d="M236.7,28c0-0.8,0.7-1.5,1.4-1.5c0.8,0,1.5,0.7,1.5,1.5v10.2h14.9V28c0-0.8,0.7-1.5,1.5-1.5s1.4,0.7,1.4,1.5
	v23.2c0,0.8-0.7,1.5-1.4,1.5c-0.8,0-1.5-0.7-1.5-1.5V40.9h-14.9v10.3c0,0.8-0.7,1.5-1.5,1.5s-1.4-0.7-1.4-1.5V28L236.7,28z"/>
<path class="st0" d="M284.4,39.7L284.4,39.7c0-5.9-4.3-10.7-10.2-10.7s-10.1,4.7-10.1,10.6v0.1c0,5.8,4.3,10.6,10.2,10.6
	C280.2,50.3,284.4,45.5,284.4,39.7 M261.1,39.7L261.1,39.7c0-7.2,5.3-13.4,13.2-13.4c7.8,0,13.1,6.1,13.1,13.2v0.1
	c0,7.1-5.3,13.3-13.2,13.3C266.4,52.9,261.1,46.8,261.1,39.7"/>
<path class="st0" d="M291.1,28c0-0.8,0.7-1.4,1.4-1.4h0.4c0.7,0,1.1,0.3,1.5,0.8l15.6,20V28c0-0.8,0.6-1.4,1.4-1.4s1.4,0.7,1.4,1.4
	v23.3c0,0.8-0.5,1.4-1.3,1.4h-0.1c-0.6,0-1.1-0.4-1.5-0.9l-16-20.4v20c0,0.8-0.6,1.4-1.4,1.4s-1.4-0.7-1.4-1.4V28z"/>
<path class="st0" d="M317.8,51V28.2c0-0.8,0.7-1.5,1.4-1.5h16c0.7,0,1.3,0.6,1.3,1.3s-0.6,1.3-1.3,1.3h-14.5v8.8h12.9
	c0.7,0,1.3,0.6,1.3,1.3s-0.6,1.3-1.3,1.3h-12.9v9h14.7c0.7,0,1.3,0.6,1.3,1.3s-0.6,1.3-1.3,1.3h-16.2
	C318.5,52.5,317.8,51.8,317.8,51"/>
<path class="st0" d="M359.6,39.9c3.9,0,6.6-2,6.6-5.3v-0.1c0-3.2-2.4-5.1-6.6-5.1h-8v10.5H359.6z M348.7,28.2c0-0.8,0.7-1.5,1.4-1.5
	h9.6c3.2,0,5.7,1,7.3,2.6c1.2,1.2,2,3,2,5.1v0.1c0,4.2-2.9,6.7-6.9,7.5l6.4,8.2c0.3,0.3,0.5,0.7,0.5,1.1c0,0.8-0.7,1.4-1.5,1.4
	c-0.6,0-1-0.3-1.4-0.8l-7.1-9.4h-7.4v8.7c0,0.8-0.7,1.5-1.5,1.5s-1.4-0.7-1.4-1.5V28.2z"/>
<path class="st0" d="M372.9,51V28.2c0-0.8,0.7-1.5,1.4-1.5h16c0.7,0,1.3,0.6,1.3,1.3s-0.6,1.3-1.3,1.3h-14.5v8.8h12.9
	c0.7,0,1.3,0.6,1.3,1.3s-0.6,1.3-1.3,1.3h-12.9v9h14.7c0.7,0,1.3,0.6,1.3,1.3s-0.6,1.3-1.3,1.3h-16.2
	C373.6,52.5,372.9,51.8,372.9,51"/>
<path class="st0" d="M404.5,40.8c4.3,0,7.1-2.3,7.1-5.7V35c0-3.7-2.8-5.6-6.9-5.6h-6.5v11.3L404.5,40.8L404.5,40.8z M395.2,28.2
	c0-0.8,0.7-1.5,1.4-1.5h8.2c5.8,0,9.6,3.1,9.6,8.2V35c0,5.6-4.6,8.4-10.1,8.4h-6.2v7.8c0,0.8-0.7,1.5-1.5,1.5s-1.4-0.7-1.4-1.5V28.2
	z"/>
<path class="st0" d="M431.7,43l-5.9-13.2L419.9,43H431.7z M413.4,50.6l10.5-22.9c0.4-0.8,0.9-1.3,1.8-1.3h0.2c0.9,0,1.5,0.5,1.8,1.3
	l10.4,22.8c0.1,0.3,0.2,0.5,0.2,0.7c0,0.8-0.6,1.4-1.4,1.4c-0.7,0-1.2-0.5-1.4-1.1l-2.7-5.9h-14.1l-2.7,6c-0.3,0.6-0.7,1-1.4,1
	s-1.3-0.6-1.3-1.3C413.3,51.1,413.3,50.9,413.4,50.6"/>
<path class="st0" d="M441.7,28c0-0.8,0.7-1.5,1.4-1.5c0.8,0,1.5,0.7,1.5,1.5v23.2c0,0.8-0.6,1.5-1.5,1.5c-0.8,0-1.4-0.7-1.4-1.5V28z
	"/>
<path class="st0" d="M460.6,39.9c3.9,0,6.6-2,6.6-5.3v-0.1c0-3.2-2.4-5.1-6.6-5.1h-7.9v10.5H460.6z M449.8,28.2
	c0-0.8,0.7-1.5,1.4-1.5h9.7c3.2,0,5.7,1,7.3,2.6c1.3,1.2,2,3,2,5.1v0.1c0,4.2-2.9,6.7-6.9,7.5l6.4,8.2c0.3,0.3,0.5,0.7,0.5,1.1
	c0,0.8-0.7,1.4-1.5,1.4c-0.6,0-1-0.3-1.4-0.8l-7.3-9.4h-7.4v8.7c0,0.8-0.7,1.5-1.5,1.5s-1.4-0.7-1.4-1.5L449.8,28.2L449.8,28.2z"/>
<path class="st0" d="M242.3,90.2V96c0.3,0.1,0.5,0.1,0.8,0.2c0.2,0,0.5,0.1,0.7,0.1c1,0,1.8-0.3,2.4-0.9s0.9-1.5,0.9-2.5
	s-0.3-1.7-0.8-2.3c-0.5-0.6-1.2-0.9-2-0.9c-0.3,0-0.6,0.1-1,0.2C243,89.9,242.6,90,242.3,90.2 M239.7,98.1V82.4l2.5-0.5v6.4
	c0.5-0.2,1-0.4,1.4-0.5c0.5-0.1,0.9-0.2,1.4-0.2c1.3,0,2.4,0.5,3.2,1.4s1.3,2.1,1.3,3.5c0,1.6-0.5,3-1.6,4s-2.4,1.5-4.1,1.5
	c-0.3,0-0.7,0-1.1-0.1s-0.9-0.2-1.5-0.4L239.7,98.1z"/>
<path class="st0" d="M253.9,102.3h-2.6c0.3-0.4,0.6-0.8,0.9-1.3s0.7-1.1,1-2l0.6-1.4l-3.5-9.6h2.7l2.2,6.2l2.7-6.2h2.1L253.9,102.3z
	"/>
<path class="st0" d="M362.7,95.5c1.6,0,2.7-0.9,2.7-2.1c0-1.8-1.8-2.4-3.3-3.4c-2.1-1.2-3.2-2.4-3.2-4.3c0-2.3,1.8-4,4.6-4
	c1.3,0,2.5,0.3,3.8,0.9l-0.1,2.4c-1.4-0.8-2.6-1.2-3.5-1.2c-1.4,0-2.2,0.7-2.2,1.7c0,1.4,1.7,2.1,3.1,3c2.3,1.4,3.5,2.7,3.5,4.8
	c0,2.6-2,4.5-5.2,4.5c-1.4,0-2.8-0.3-4.1-0.9l-0.2-3C360.1,94.9,361.4,95.5,362.7,95.5"/>
<path class="st0" d="M347.8,95.5c1.6,0,2.7-0.9,2.7-2.1c0-1.8-1.8-2.4-3.3-3.4c-2.1-1.2-3.2-2.4-3.2-4.3c0-2.3,1.8-4,4.6-4
	c1.3,0,2.5,0.3,3.8,0.9l-0.1,2.4c-1.4-0.8-2.6-1.2-3.5-1.2c-1.4,0-2.2,0.7-2.2,1.7c0,1.4,1.7,2.1,3.1,3c2.3,1.4,3.5,2.7,3.5,4.8
	c0,2.6-2,4.5-5.2,4.5c-1.4,0-2.8-0.3-4.1-0.9l-0.2-3C345.2,94.9,346.5,95.5,347.8,95.5"/>
<path class="st0" d="M376.5,91c0,2.9,1.2,4.4,3.6,4.4c2.4,0,3.6-1.5,3.6-4.5v-8.7h2.7V91c0,4.4-2.4,6.8-6.3,6.8
	c-4,0-6.3-2.7-6.3-6.7v-8.8h2.7L376.5,91L376.5,91z"/>
<path class="st0" d="M400.4,86.7c0-2.4-2.6-2.3-4.7-2.3v4.7C397.4,89,400.4,89.2,400.4,86.7 M393.1,82.2h3.5c1.9,0,3.4,0.1,4.7,1
	c1.1,0.8,1.8,2,1.8,3.2c0,2-1.2,3.5-3.3,4.2l4.9,6.6h-3.1L397,91h-1.3v6.2h-2.6V82.2z"/>
<polygon class="st0" points="454,97.3 451.3,97.3 451.3,84.5 446.2,84.5 446.2,82.2 459,82.2 459,84.5 454,84.5 "/>
<path class="st0" d="M329.5,91.3c0.7-1.9,1.5-3.6,2.5-5.3c1,1.7,1.9,3.5,2.5,5.3H329.5z M332.1,81.7
	C332.1,81.7,332.1,81.6,332.1,81.7c-0.2-0.1-0.2,0-0.2,0c-3.7,5.6-5.2,8.6-7.4,15.5h2.7c0.2-0.9,0.9-2.8,1.2-3.7h7.3
	c0.3,0.9,1,2.8,1.2,3.7h2.7C337.2,90.2,335.7,87.2,332.1,81.7"/>
<path class="st0" d="M413.1,91.3c0.7-1.9,1.5-3.6,2.5-5.3c1,1.7,1.9,3.5,2.5,5.3H413.1z M415.8,81.7L415.8,81.7
	c-0.2-0.1-0.2,0-0.2,0c-3.7,5.6-5.2,8.6-7.4,15.5h2.7c0.2-0.9,0.9-2.8,1.2-3.7h7.3c0.3,0.9,1,2.8,1.2,3.7h2.7
	C420.9,90.2,419.4,87.2,415.8,81.7"/>
<path class="st0" d="M430.8,87.9l9.9,9.9h0.1v-0.1V82.2h-2.6v9.3l-9.9-9.9h-0.1v0.1v15.4h2.6V87.9z"/>
<path class="st0" d="M274.5,100.1c0,0.1,0.1,0.2,0.1,0.2c1.2-4.1,3-8.4,5.2-12.8c-2.8,0.4-5.6,1-8.1,1.8
	C271.7,93,272.6,96.7,274.5,100.1"/>
<path class="st0" d="M292.5,69.3c-0.1-0.1-0.2-0.2-0.3-0.3c-6.6,0.1-12.5,3.3-16.2,8.2c3.5-0.7,7.2-1.2,11.2-1.4
	C288.9,73.4,290.7,71.3,292.5,69.3"/>
<path class="st0" d="M301.1,100c0.8-1.3,1.6-2.6,2.4-3.9c3.2-5.5,5.6-11,7.2-16.2c-1.5-2.8-3.6-5.2-6.3-7.1
	c-1.6,6.1-4.3,12.7-8,19.2c-1,1.7-2,3.3-3.1,4.9c0.8,1.2,1.7,2.3,2.5,3.4C297.6,100.3,299.4,100.2,301.1,100"/>
<path class="st0" d="M292.5,69h-0.3c2.9,3.1,5.8,6.8,8.4,10.9c1-2.7,1.9-5.3,2.5-7.9C300,70.1,296.4,69,292.5,69"/>
<path class="st0" d="M310.2,100c0.1,0,0.2-0.1,0.4-0.1c3.2-5.8,3.4-12.4,1-18.1c-1.1,3.4-2.6,6.9-4.3,10.4
	C308.4,94.8,309.4,97.4,310.2,100"/>
<path class="st0" d="M279.2,92.1c0.7,1.3,1.4,2.7,2.2,4c3.2,5.5,6.7,10.3,10.4,14.3c3.1,0.1,6.3-0.5,9.3-1.9
	c-4.5-4.4-8.8-10-12.6-16.5c-1-1.7-1.9-3.4-2.7-5.2c-1.4,0.1-2.8,0.3-4.2,0.5C280.7,88.9,279.9,90.5,279.2,92.1"/>
<path class="st0" d="M310.4,100.1c0-0.1,0.1-0.1,0.1-0.2c-4.2,1-8.8,1.6-13.6,1.9c1.8,2.2,3.7,4.3,5.6,6.1
	C305.7,106.1,308.4,103.5,310.4,100.1"/>
<path class="st0" d="M274.8,100c0,0.1-0.1,0.2-0.1,0.4c3.4,5.7,9.1,9.2,15.2,10c-2.4-2.7-4.7-5.7-6.8-8.9
	C280.1,101,277.4,100.5,274.8,100"/>
<path class="st0" d="M297.1,77.1c-1.5-0.1-3-0.1-4.6-0.1c-6.3,0-12.3,0.7-17.6,1.8c-1.6,2.7-2.7,5.7-3,9c6-1.7,13.1-2.6,20.6-2.6
	c2,0,3.9,0.1,5.8,0.2c0.6-1.3,1.2-2.6,1.7-3.9C299.1,80,298.1,78.5,297.1,77.1"/>
<path class="st0" d="M466.2,83.8V85c0,0,0.2,0,0.3,0c0.3,0,0.6,0,0.7-0.1c0.1-0.1,0.2-0.3,0.2-0.5c0-0.4-0.3-0.6-0.8-0.6h-0.2H466.2
	z M467.7,87.1l-0.9-1.6h-0.5v1.6h-0.5v-3.7h0.9c0.9,0,1.3,0.3,1.3,1c0,0.5-0.2,0.8-0.7,1l1,1.7H467.7z M469.3,85.2
	c0-0.7-0.2-1.3-0.7-1.8s-1.1-0.7-1.8-0.7s-1.3,0.2-1.8,0.7s-0.7,1.1-0.7,1.8c0,0.7,0.2,1.3,0.7,1.8s1.1,0.7,1.8,0.7
	c0.7,0,1.3-0.2,1.8-0.7C469.1,86.5,469.3,85.9,469.3,85.2 M463.8,85.2c0-0.8,0.3-1.5,0.9-2.1c0.6-0.6,1.3-0.9,2.1-0.9
	s1.5,0.3,2.1,0.9c0.6,0.6,0.9,1.3,0.9,2.1c0,0.8-0.3,1.5-0.9,2.1c-0.6,0.6-1.3,0.9-2.1,0.9c-0.8,0-1.5-0.3-2.1-0.9
	C464.1,86.8,463.8,86.1,463.8,85.2"/>
<g>
	<circle class="st1" cx="47.7" cy="48.9" r="47"/>
	<g>
		<path class="st2" d="M80.8,38.9H57.7V15.5H37.8v23.4H14.7V59h23.1v23.4h19.9V59h23.1V38.9z"/>
		<path class="st0" d="M33.9,57c-1,0-2-0.2-2.9-0.6c-0.9-0.4-1.7-0.9-2.4-1.5c-0.6-0.7-1.2-1.5-1.6-2.4s-0.6-1.9-0.6-3
			c0-1,0.2-2,0.6-2.9s0.9-1.7,1.6-2.4s1.5-1.2,2.4-1.6c0.9-0.4,1.9-0.6,3-0.6c0.7,0,1.4,0.1,2,0.2c0.6,0.2,1.2,0.4,1.7,0.6
			c0.5,0.3,0.9,0.6,1.4,1c0.4,0.4,0.8,0.8,1.1,1.2l-3,2.3c-0.4-0.5-0.9-0.9-1.4-1.2c-0.5-0.3-1.1-0.5-1.8-0.5c-0.5,0-1,0.1-1.4,0.3
			c-0.4,0.2-0.8,0.5-1.1,0.8c-0.3,0.3-0.5,0.8-0.7,1.2c-0.2,0.5-0.2,1-0.2,1.5c0,0.5,0.1,1,0.2,1.5c0.2,0.5,0.4,0.9,0.7,1.2
			c0.3,0.3,0.7,0.6,1.1,0.8c0.4,0.2,0.9,0.3,1.4,0.3c0.4,0,0.7-0.1,1-0.1c0.3-0.1,0.6-0.2,0.8-0.4c0.3-0.2,0.5-0.3,0.7-0.6
			c0.2-0.2,0.4-0.5,0.7-0.7l3,2.1c-0.3,0.5-0.7,0.9-1.1,1.3c-0.4,0.4-0.9,0.7-1.4,1c-0.5,0.3-1.1,0.5-1.7,0.7
			C35.4,56.9,34.7,57,33.9,57z"/>
		<path class="st0" d="M47.8,49.4c0.7,0,1.3-0.2,1.7-0.5c0.4-0.3,0.6-0.8,0.6-1.4c0-0.6-0.2-1.1-0.6-1.4c-0.4-0.3-1-0.5-1.7-0.5
			h-1.9v3.8H47.8z M42,42.3h6.1c0.9,0,1.7,0.1,2.5,0.3c0.7,0.2,1.4,0.5,1.9,1c0.5,0.4,0.9,1,1.2,1.6c0.3,0.6,0.4,1.3,0.4,2.1
			c0,0.9-0.2,1.6-0.5,2.2c-0.3,0.6-0.7,1.2-1.3,1.6c-0.6,0.4-1.2,0.8-2,1c-0.8,0.2-1.6,0.3-2.5,0.3h-2v4.1h-4L42,42.3L42,42.3z"/>
		<path class="st0" d="M62.3,49.2c0.7,0,1.2-0.2,1.6-0.5c0.4-0.3,0.6-0.7,0.6-1.2c0-0.6-0.2-1-0.6-1.3c-0.4-0.3-0.9-0.4-1.6-0.4
			h-2.6v3.5h2.6V49.2z M55.7,42.3h6.7c1.1,0,2.1,0.1,2.8,0.4c0.8,0.3,1.4,0.7,1.9,1.2c0.9,0.8,1.3,1.9,1.3,3.4c0,1.1-0.3,2-0.8,2.8
			c-0.5,0.7-1.3,1.3-2.2,1.7l3.4,5h-4.6l-2.9-4.4h-1.7v4.4h-4V42.3z"/>
		<path class="st0" d="M72.3,43.9v1.2c0,0,0.2,0,0.3,0c0.3,0,0.6,0,0.7-0.1c0.1-0.1,0.2-0.3,0.2-0.5c0-0.4-0.3-0.6-0.8-0.6h-0.2
			H72.3z M73.6,47.1l-0.9-1.6h-0.5v1.6h-0.6v-3.7h1c0.9,0,1.3,0.3,1.3,1c0,0.5-0.2,0.8-0.7,1l1,1.7H73.6z M75.2,45.3
			c0-0.7-0.2-1.3-0.7-1.8c-0.5-0.5-1.1-0.7-1.8-0.7c-0.7,0-1.3,0.2-1.8,0.7c-0.5,0.5-0.7,1.1-0.7,1.8c0,0.7,0.2,1.3,0.7,1.8
			c0.5,0.5,1.1,0.7,1.8,0.7c0.7,0,1.3-0.2,1.8-0.7C75,46.6,75.2,46,75.2,45.3z M69.8,45.3c0-0.8,0.3-1.5,0.9-2.1
			c0.6-0.6,1.3-0.9,2.1-0.9s1.5,0.3,2.1,0.9c0.6,0.6,0.9,1.3,0.9,2.1c0,0.8-0.3,1.5-0.9,2.1c-0.6,0.6-1.3,0.9-2.1,0.9
			s-1.5-0.3-2.1-0.9C70.1,46.8,69.8,46.1,69.8,45.3z"/>
	</g>
</g>
</svg>
